<svg xmlns="http://www.w3.org/2000/svg" viewBox="0 0 21 18" width="64" height="64">
  <defs>
    <linearGradient id="g" x1="0%" y1="0%" x2="100%" y2="100%">
      <stop offset="0%" stop-color="#00f0ff"/>
      <stop offset="100%" stop-color="#ff44f5"/>
    </linearGradient>
  </defs>
  <rect x="3.4" y="3.4" width="1.2" height="1.2" fill="url(#g)"/><rect x="5.4" y="3.4" width="1.2" height="1.2" fill="url(#g)"/><rect x="3.4" y="5.4" width="1.2" height="1.2" fill="url(#g)"/><rect x="5.4" y="5.4" width="1.2" height="1.2" fill="url(#g)"/>
  <rect x="7.4" y="3.4" width="1.2" height="1.2" fill="url(#g)"/><rect x="9.4" y="3.4" width="1.2" height="1.2" fill="url(#g)"/><rect x="7.4" y="5.4" width="1.2" height="1.2" fill="url(#g)"/><rect x="9.4" y="5.4" width="1.2" height="1.2" fill="url(#g)"/>
  <rect x="11.4" y="3.4" width="1.2" height="1.2" fill="url(#g)"/><rect x="13.4" y="3.4" width="1.2" height="1.2" fill="url(#g)"/><rect x="11.4" y="5.4" width="1.2" height="1.2" fill="url(#g)"/><rect x="13.4" y="5.4" width="1.2" height="1.2" fill="url(#g)"/>
  <rect x="15.4" y="3.4" width="1.2" height="1.2" fill="url(#g)"/><rect x="17.4" y="3.4" width="1.2" height="1.2" fill="url(#g)"/><rect x="15.4" y="5.4" width="1.2" height="1.2" fill="url(#g)"/><rect x="17.4" y="5.4" width="1.2" height="1.2" fill="url(#g)"/>
  <rect x="1.4" y="7.4" width="1.2" height="1.2" fill="url(#g)"/><rect x="3.4" y="7.4" width="1.2" height="1.2" fill="url(#g)"/><rect x="1.4" y="9.4" width="1.2" height="1.2" fill="url(#g)"/><rect x="3.4" y="9.4" width="1.2" height="1.2" fill="url(#g)"/>
  <rect x="9.4" y="7.4" width="1.2" height="1.2" fill="url(#g)"/><rect x="11.4" y="7.4" width="1.2" height="1.2" fill="url(#g)"/><rect x="9.4" y="9.4" width="1.2" height="1.2" fill="url(#g)"/><rect x="11.4" y="9.4" width="1.2" height="1.2" fill="url(#g)"/>
  <rect x="17.4" y="7.4" width="1.2" height="1.2" fill="url(#g)"/><rect x="19.4" y="7.4" width="1.2" height="1.2" fill="url(#g)"/><rect x="17.4" y="9.4" width="1.2" height="1.2" fill="url(#g)"/><rect x="19.4" y="9.4" width="1.2" height="1.2" fill="url(#g)"/>
  <rect x="3.4" y="11.4" width="1.2" height="1.2" fill="url(#g)"/><rect x="5.4" y="11.4" width="1.2" height="1.2" fill="url(#g)"/><rect x="3.4" y="13.4" width="1.2" height="1.2" fill="url(#g)"/><rect x="5.4" y="13.4" width="1.2" height="1.2" fill="url(#g)"/>
  <rect x="7.4" y="11.4" width="1.2" height="1.2" fill="url(#g)"/><rect x="9.4" y="11.4" width="1.2" height="1.2" fill="url(#g)"/><rect x="7.4" y="13.4" width="1.2" height="1.2" fill="url(#g)"/><rect x="9.4" y="13.4" width="1.2" height="1.2" fill="url(#g)"/>
  <rect x="11.4" y="11.4" width="1.2" height="1.2" fill="url(#g)"/><rect x="13.4" y="11.4" width="1.2" height="1.2" fill="url(#g)"/><rect x="11.4" y="13.4" width="1.2" height="1.2" fill="url(#g)"/><rect x="13.4" y="13.4" width="1.2" height="1.2" fill="url(#g)"/>
  <rect x="15.4" y="11.4" width="1.2" height="1.2" fill="url(#g)"/><rect x="17.4" y="11.4" width="1.2" height="1.2" fill="url(#g)"/><rect x="15.4" y="13.4" width="1.2" height="1.2" fill="url(#g)"/><rect x="17.4" y="13.4" width="1.2" height="1.2" fill="url(#g)"/>
</svg>
