<svg xmlns="http://www.w3.org/2000/svg" viewBox="0 0 20 20" width="64" height="64">
  <defs>
    <linearGradient id="g-agreement" x1="0%" y1="0%" x2="100%" y2="100%">
      <stop offset="0%" stop-color="#00f0ff"/>
      <stop offset="100%" stop-color="#ff44f5"/>
    </linearGradient>
  </defs>
  <rect x="2.4" y="3.4" width="1.2" height="1.2" fill="url(#g-agreement)"/><rect x="4.4" y="3.4" width="1.2" height="1.2" fill="url(#g-agreement)"/><rect x="6.4" y="3.4" width="1.2" height="1.2" fill="url(#g-agreement)"/><rect x="8.4" y="3.4" width="1.2" height="1.2" fill="url(#g-agreement)"/>
  <rect x="2.4" y="5.4" width="1.2" height="1.2" fill="url(#g-agreement)"/><rect x="4.4" y="5.4" width="1.2" height="1.2" fill="url(#g-agreement)"/><rect x="6.4" y="5.4" width="1.2" height="1.2" fill="url(#g-agreement)"/><rect x="8.4" y="5.4" width="1.2" height="1.2" fill="url(#g-agreement)"/>
  <rect x="2.4" y="7.4" width="1.2" height="1.2" fill="url(#g-agreement)"/><rect x="4.4" y="7.4" width="1.2" height="1.2" fill="url(#g-agreement)"/><rect x="6.4" y="7.4" width="1.2" height="1.2" fill="url(#g-agreement)"/><rect x="8.4" y="7.4" width="1.2" height="1.2" fill="url(#g-agreement)"/>
  <rect x="9.6" y="8.6" width="1.2" height="1.2" fill="url(#g-agreement)"/><rect x="11.6" y="8.6" width="1.2" height="1.2" fill="url(#g-agreement)"/><rect x="13.6" y="8.6" width="1.2" height="1.2" fill="url(#g-agreement)"/><rect x="15.6" y="8.6" width="1.2" height="1.2" fill="url(#g-agreement)"/>
  <rect x="9.6" y="10.6" width="1.2" height="1.2" fill="url(#g-agreement)"/><rect x="11.6" y="10.6" width="1.2" height="1.2" fill="url(#g-agreement)"/><rect x="13.6" y="10.6" width="1.2" height="1.2" fill="url(#g-agreement)"/><rect x="15.6" y="10.6" width="1.2" height="1.2" fill="url(#g-agreement)"/>
  <rect x="9.6" y="12.6" width="1.2" height="1.2" fill="url(#g-agreement)"/><rect x="11.6" y="12.6" width="1.2" height="1.2" fill="url(#g-agreement)"/><rect x="13.6" y="12.6" width="1.2" height="1.2" fill="url(#g-agreement)"/><rect x="15.6" y="12.6" width="1.2" height="1.2" fill="url(#g-agreement)"/>
</svg>
